<svg width="85" height="74" viewBox="0 0 85 74" fill="none" xmlns="http://www.w3.org/2000/svg">
<g clip-path="url(#clip0_17_2)">
<path d="M23.08 23.77C26.0222 29.7037 27.8685 36.12 28.53 42.71C23.7383 38.1172 19.8154 32.6969 16.95 26.71C14.0917 20.7835 12.2687 14.4115 11.56 7.87C16.28 12.473 20.1764 17.8509 23.08 23.77V23.77Z" fill="white"/>
<path d="M29.66 45.03L27.87 43.46C22.9829 38.7945 18.9816 33.2822 16.06 27.19C13.1369 21.1579 11.2795 14.6654 10.57 8.00001L10.38 5.51001L12.23 7.19001C17.0454 11.8545 21.0203 17.3145 23.98 23.33C26.9855 29.3833 28.8629 35.9336 29.52 42.66L29.66 45.03ZM12.94 10.74C14.6809 21.6826 19.6418 31.8586 27.19 39.97C26.2937 34.4994 24.6096 29.1876 22.19 24.2V24.2C19.7553 19.3005 16.6413 14.7691 12.94 10.74Z" fill="#212529"/>
<path d="M15.82 28.26C19.2651 31.785 22.0432 35.9048 24.02 40.42C19.5828 38.2756 15.5686 35.3488 12.17 31.78C8.78507 28.2415 6.03185 24.1489 4.03 19.68C8.42051 21.8468 12.408 24.7486 15.82 28.26V28.26Z" fill="white"/>
<path d="M25.77 42.26L23.59 41.32C19.0283 39.1264 14.9016 36.1246 11.41 32.46C7.93069 28.8367 5.10556 24.638 3.06 20.05L2.12 17.75L4.39 18.75C8.90546 20.9562 13.0031 23.9305 16.5 27.54V27.54C20.0431 31.1544 22.8935 35.3877 24.91 40.03L25.77 42.26ZM6.28999 21.98C9.88323 28.6759 15.2579 34.2478 21.82 38.08C20.0036 34.7339 17.7468 31.6464 15.11 28.9C12.4869 26.2157 9.52133 23.889 6.28999 21.98V21.98Z" fill="#212529"/>
<path d="M33.55 24.77C33.5975 32.3551 32.2729 39.8863 29.64 47C27.0282 39.8818 25.7174 32.352 25.77 24.77C25.8024 17.2383 27.1214 9.76746 29.67 2.67999C32.2142 9.76804 33.5264 17.2392 33.55 24.77V24.77Z" fill="white"/>
<path d="M29.64 49.58L28.73 47.39C26.03 40.1566 24.6744 32.4907 24.73 24.77C24.7586 17.1087 26.1119 9.5101 28.73 2.31001L29.65 0L30.58 2.31001C33.1956 9.51078 34.5488 17.109 34.58 24.77C34.6313 32.4903 33.2759 40.1555 30.58 47.39L29.64 49.58ZM29.64 5.77C27.7636 11.931 26.7836 18.3299 26.73 24.77C26.7401 31.2897 27.7243 37.7712 29.65 44C31.5681 37.7697 32.5488 31.2888 32.56 24.77C32.5102 18.3288 31.5266 11.9289 29.64 5.77V5.77Z" fill="#212529"/>
<g style="mix-blend-mode:multiply">
<g style="mix-blend-mode:multiply">
<path d="M28.58 4.26001L27.65 1.95001L26.77 4.26001C24.1519 11.4601 22.7986 19.0587 22.77 26.72C22.77 26.79 22.77 26.86 22.77 26.93C22.52 26.39 22.27 25.84 22 25.28C19.0366 19.276 15.0581 13.8292 10.24 9.18001L8.39001 7.50001L8.58001 9.99001C9.2808 16.5474 11.0898 22.9382 13.93 28.89C10.5736 25.5599 6.69589 22.8003 2.45001 20.72L0.170013 19.72L1.12001 22.03C3.16432 26.6162 5.98584 30.8147 9.46001 34.44C12.955 38.0903 17.0814 41.0784 21.64 43.26L23.82 44.2L23.28 42.81C24.11 43.72 24.77 44.39 25.23 44.81C25.6456 46.3479 26.1498 47.8604 26.74 49.34L27.65 51.53L28.57 49.34C31.2708 42.1103 32.6264 34.4475 32.57 26.73C32.5458 19.066 31.1959 11.4639 28.58 4.26001V4.26001Z" fill="#33BBA2"/>
</g>
</g>
<path d="M65.15 63.26C63.9491 64.5026 62.6066 65.6001 61.15 66.53C60.426 67.0183 59.6711 67.4593 58.89 67.85C56.1905 69.2116 53.249 70.0276 50.2339 70.2513C47.2187 70.4751 44.189 70.1021 41.3181 69.1538C38.4472 68.2055 35.7914 66.7005 33.5027 64.7248C31.2141 62.7492 29.3374 60.3417 27.98 57.64C27.046 55.7919 26.373 53.8231 25.98 51.79V51.79C26.7355 47.5515 28.4693 43.5476 31.0436 40.0967C33.6179 36.6458 36.9617 33.8429 40.8092 31.9109C44.6567 29.9789 48.9018 28.9711 53.2071 28.9674C57.5124 28.9638 61.7593 29.9645 65.61 31.89C66.9895 33.4125 68.1567 35.1146 69.08 36.95C71.2313 41.2022 72.0086 46.0177 71.3046 50.7308C70.6006 55.4439 68.45 59.822 65.15 63.26V63.26Z" fill="white"/>
<path d="M48.63 71.26C44.1742 71.2725 39.8029 70.0443 36.0056 67.7129C32.2084 65.3816 29.1351 62.0392 27.13 58.06C26.1587 56.1279 25.4555 54.0723 25.04 51.95V51.74C25.7959 47.3301 27.5738 43.1584 30.2313 39.5589C32.8888 35.9594 36.3522 33.0321 40.3441 31.0114C44.336 28.9907 48.7455 27.9326 53.2197 27.922C57.694 27.9113 62.1085 28.9483 66.11 30.95L66.4 31.17C67.8432 32.7578 69.0643 34.534 70.03 36.45C72.2647 40.8949 73.0666 45.9233 72.3251 50.8429C71.5837 55.7624 69.3355 60.3311 65.89 63.92V63.92C64.6536 65.2214 63.2712 66.3757 61.77 67.36C57.8879 69.9352 53.3285 71.2995 48.67 71.28L48.63 71.26ZM27.02 51.76C27.7032 55.0686 29.1393 58.1753 31.2168 60.8394C33.2943 63.5035 35.9574 65.6533 38.9997 67.1223C42.042 68.5912 45.3817 69.3398 48.76 69.3099C52.1382 69.28 55.4642 68.4725 58.48 66.95C59.2257 66.5794 59.9471 66.1619 60.64 65.7C62.0167 64.8021 63.2881 63.7522 64.43 62.57V62.57C67.5935 59.2773 69.6578 55.0844 70.3384 50.5692C71.019 46.054 70.2823 41.4389 68.23 37.36C67.3777 35.6631 66.3051 34.0862 65.04 32.67C61.3345 30.8594 57.2614 29.9274 53.1372 29.9465C49.0129 29.9656 44.9487 30.9352 41.26 32.78C37.5752 34.62 34.3697 37.2933 31.898 40.5879C29.4262 43.8824 27.756 47.7076 27.02 51.76V51.76Z" fill="#212529"/>
<path d="M65.45 55.26C65.45 55.7821 65.2951 56.2926 65.0051 56.7267C64.715 57.1608 64.3027 57.4992 63.8203 57.699C63.3379 57.8989 62.8071 57.9511 62.2949 57.8493C61.7828 57.7474 61.3124 57.496 60.9432 57.1268C60.574 56.7575 60.3226 56.2871 60.2207 55.775C60.1188 55.2629 60.1711 54.7321 60.3709 54.2497C60.5708 53.7673 60.9091 53.355 61.3433 53.0649C61.7774 52.7748 62.2878 52.62 62.81 52.62C63.5101 52.62 64.1817 52.8981 64.6768 53.3932C65.1718 53.8883 65.45 54.5598 65.45 55.26V55.26Z" fill="white"/>
<path d="M62.77 58.9C62.0501 58.9 61.3463 58.6865 60.7477 58.2865C60.1491 57.8866 59.6826 57.3181 59.4071 56.653C59.1316 55.9879 59.0595 55.256 59.1999 54.5499C59.3404 53.8438 59.6871 53.1952 60.1961 52.6861C60.7052 52.1771 61.3538 51.8304 62.0599 51.6899C62.766 51.5495 63.4979 51.6216 64.163 51.8971C64.8281 52.1726 65.3966 52.6391 65.7966 53.2377C66.1965 53.8363 66.41 54.5401 66.41 55.26C66.41 56.2254 66.0265 57.1512 65.3439 57.8339C64.6612 58.5165 63.7354 58.9 62.77 58.9V58.9ZM62.77 53.61C62.4437 53.61 62.1247 53.7068 61.8533 53.8881C61.582 54.0694 61.3705 54.3271 61.2456 54.6286C61.1207 54.9301 61.088 55.2618 61.1517 55.5819C61.2154 55.902 61.3725 56.196 61.6033 56.4267C61.834 56.6575 62.128 56.8146 62.4481 56.8783C62.7682 56.942 63.0999 56.9093 63.4014 56.7844C63.7029 56.6595 63.9606 56.448 64.1419 56.1767C64.3232 55.9054 64.42 55.5863 64.42 55.26C64.42 54.8224 64.2462 54.4027 63.9367 54.0933C63.6273 53.7838 63.2076 53.61 62.77 53.61V53.61Z" fill="#212529"/>
<path d="M57.41 60.89C57.412 61.4126 57.2588 61.924 56.9699 62.3594C56.6811 62.7949 56.2694 63.1348 55.7872 63.3362C55.305 63.5375 54.7739 63.5912 54.2611 63.4905C53.7483 63.3898 53.277 63.1391 52.9068 62.7703C52.5366 62.4015 52.2841 61.9311 52.1815 61.4187C52.0788 60.9064 52.1305 60.375 52.33 59.892C52.5295 59.4091 52.8679 58.9962 53.3022 58.7056C53.7366 58.4151 54.2474 58.26 54.77 58.26C55.4684 58.26 56.1384 58.5368 56.6332 59.0297C57.128 59.5226 57.4073 60.1916 57.41 60.89Z" fill="white"/>
<path d="M54.77 64.52C54.0492 64.522 53.3441 64.3099 52.744 63.9107C52.1438 63.5115 51.6757 62.9431 51.399 62.2776C51.1223 61.6121 51.0493 60.8794 51.1894 60.1723C51.3296 59.4653 51.6765 58.8158 52.1861 58.3062C52.6958 57.7965 53.3453 57.4496 54.0523 57.3095C54.7593 57.1693 55.492 57.2423 56.1576 57.519C56.8231 57.7958 57.3915 58.2639 57.7907 58.864C58.1899 59.4641 58.402 60.1692 58.4 60.89C58.3974 61.8519 58.0141 62.7737 57.3339 63.4539C56.6537 64.1341 55.7319 64.5174 54.77 64.52ZM54.77 59.24C54.4432 59.238 54.1232 59.3331 53.8506 59.5132C53.5779 59.6933 53.3649 59.9503 53.2385 60.2516C53.1121 60.5529 53.078 60.885 53.1405 61.2057C53.203 61.5265 53.3594 61.8214 53.5897 62.0532C53.8201 62.2849 54.114 62.4431 54.4344 62.5075C54.7547 62.572 55.087 62.5399 55.3891 62.4153C55.6912 62.2908 55.9495 62.0793 56.1312 61.8077C56.313 61.5362 56.41 61.2168 56.41 60.89C56.4048 60.4576 56.23 60.0445 55.9233 59.7397C55.6165 59.4348 55.2024 59.2626 54.77 59.26V59.24Z" fill="#212529"/>
<path d="M65.15 63.26C63.9491 64.5026 62.6066 65.6001 61.15 66.53C60.8345 66.2837 60.58 65.9678 60.4066 65.607C60.2331 65.2462 60.1453 64.8503 60.15 64.45C60.1384 63.8497 60.3325 63.2636 60.7001 62.7889C61.0677 62.3142 61.5866 61.9796 62.1706 61.8406C62.7546 61.7016 63.3687 61.7666 63.9106 62.0248C64.4526 62.283 64.89 62.7189 65.15 63.26V63.26Z" fill="white"/>
<path d="M61.15 67.74L60.59 67.31C60.1456 66.9758 59.7857 66.5421 59.5391 66.0437C59.2925 65.5453 59.1661 64.996 59.17 64.44C59.1618 63.6191 59.4329 62.8198 59.9388 62.1732C60.4447 61.5267 61.1553 61.0713 61.9541 60.8818C62.7529 60.6922 63.5924 60.7799 64.3348 61.1302C65.0772 61.4806 65.6785 62.0729 66.04 62.81L66.35 63.44L65.87 63.94C64.6388 65.2332 63.2631 66.3807 61.77 67.36L61.15 67.74ZM62.8 62.74C62.5825 62.74 62.3671 62.783 62.1662 62.8666C61.9654 62.9501 61.7831 63.0725 61.6297 63.2268C61.4764 63.3811 61.355 63.5642 61.2727 63.7655C61.1904 63.9669 61.1487 64.1825 61.15 64.4C61.1499 64.6727 61.2187 64.941 61.35 65.18C62.231 64.5575 63.0634 63.8688 63.84 63.12C63.5344 62.8843 63.1555 62.7639 62.77 62.78L62.8 62.74Z" fill="#212529"/>
<g style="mix-blend-mode:multiply">
<g style="mix-blend-mode:multiply">
<path d="M68.02 38.46C67.0543 36.544 65.8331 34.7678 64.39 33.18L64.1 32.96C60.0985 30.9583 55.6839 29.9213 51.2097 29.932C46.7355 29.9426 42.3259 31.0007 38.334 33.0214C34.3421 35.0422 30.8788 37.9694 28.2213 41.5689C25.5637 45.1684 23.7859 49.3401 23.03 53.75V53.95C23.4423 56.0763 24.1456 58.1357 25.12 60.07C26.6398 63.0987 28.7838 65.7712 31.4109 67.9116C34.0379 70.0521 37.0884 71.612 40.3617 72.4886C43.635 73.3653 47.0568 73.5388 50.402 72.9979C53.7472 72.4569 56.9399 71.2137 59.77 69.35C61.2721 68.3705 62.6577 67.2231 63.9 65.93C67.3422 62.3389 69.5867 57.7691 70.3246 52.8496C71.0624 47.9302 70.2573 42.903 68.02 38.46V38.46Z" fill="#F8F1F1"/>
</g>
</g>
<path d="M35.92 66.52C33.3031 67.8939 30.4387 68.7324 27.494 68.9865C24.5493 69.2406 21.5836 68.9053 18.77 68C15.4615 66.9117 12.445 65.0828 9.95013 62.6525C7.4553 60.2222 5.54795 57.2546 4.37335 53.9757C3.19875 50.6969 2.78786 47.1932 3.172 43.7316C3.55613 40.2699 4.72514 36.9416 6.59001 34C6.84001 33.61 7.10001 33.23 7.38001 32.85C7.66001 32.47 7.72001 32.37 7.91001 32.13C9.16001 31.34 12.3 31.93 16.43 33.59C16.4632 33.5856 16.4968 33.5856 16.53 33.59C19.6694 34.7731 22.684 36.2636 25.53 38.04C26.29 38.48 27.08 38.94 27.86 39.44C28.43 39.75 28.97 40.1 29.53 40.44C31.24 41.52 32.87 42.63 34.39 43.73C36.13 44.98 37.63 46.13 38.82 47.14C43.61 51.14 46.52 54.64 46.29 56.46C46.16 56.73 46.01 56.99 45.87 57.25C43.5936 61.296 40.1168 64.5352 35.92 66.52Z" fill="white"/>
<path d="M25.39 70.07C23.0102 70.0841 20.6446 69.7022 18.39 68.94C14.9251 67.7827 11.7702 65.8498 9.1655 63.2884C6.56084 60.7271 4.57523 57.605 3.36002 54.16C2.15773 50.7524 1.74987 47.1152 2.16754 43.526C2.58521 39.9368 3.81739 36.4904 5.77002 33.45C6.03002 33.04 6.31002 32.63 6.60002 32.24C6.89002 31.85 6.96002 31.74 7.15002 31.49L7.40002 31.27C8.93002 30.27 12.05 30.75 16.69 32.6L16.9 32.67C20.0975 33.8723 23.169 35.3862 26.07 37.19C26.83 37.64 27.63 38.1 28.43 38.61C28.96 38.91 29.51 39.26 30.09 39.61C31.76 40.67 33.41 41.79 35 42.95C36.79 44.23 38.31 45.39 39.49 46.4C43.25 49.52 47.66 53.84 47.31 56.6L47.21 56.91C47.07 57.2 46.92 57.48 46.76 57.76C44.397 61.9719 40.7789 65.3417 36.41 67.4V67.4C32.9956 69.1384 29.2215 70.0528 25.39 70.07V70.07ZM8.55002 32.89L8.16002 33.41C7.89002 33.78 7.64002 34.14 7.41002 34.51C5.62571 37.3027 4.50192 40.4656 4.12416 43.758C3.74639 47.0505 4.12461 50.3857 5.23002 53.51C6.35606 56.6715 8.18766 59.5349 10.5858 61.8827C12.9838 64.2306 15.8854 66.0011 19.07 67.06C23.9134 68.4832 29.0934 68.2476 33.7876 66.3905C38.4818 64.5335 42.4211 61.1615 44.98 56.81C45.1 56.61 45.2 56.42 45.3 56.23C45.3 55.23 43.74 52.56 38.18 47.93C37.02 46.93 35.55 45.83 33.8 44.57C32.23 43.44 30.61 42.34 28.99 41.3C28.44 40.96 27.91 40.62 27.36 40.3C26.55 39.79 25.77 39.3 25.02 38.89C22.237 37.1603 19.2933 35.7035 16.23 34.54L16.04 34.48C11.77 32.77 9.36002 32.54 8.55002 32.89Z" fill="#212529"/>
<path d="M8.18 41.81C7.55503 44.5829 7.56219 47.4609 8.20097 50.2307C8.83974 53.0004 10.0937 55.5909 11.87 57.81" fill="white"/>
<path d="M7.27001 41.56C6.64756 44.4517 6.66423 47.4444 7.31887 50.329C7.97351 53.2136 9.25031 55.9203 11.06 58.26C11.79 59.21 13.43 58.26 12.69 57.31C11.01 55.1867 9.81679 52.7203 9.19473 50.0852C8.57266 47.4501 8.53692 44.7105 9.09001 42.06C9.33001 40.88 7.51001 40.37 7.27001 41.56V41.56Z" fill="#212529"/>
<path d="M84.55 32.13C84.646 31.9752 84.7804 31.8478 84.94 31.76C84.76 31.98 84.58 32.22 84.42 32.45C84.4404 32.3354 84.4847 32.2264 84.55 32.13V32.13Z" fill="#33BBA2"/>
<path d="M25.53 38.05C22.6357 36.3619 19.6286 34.875 16.53 33.6C19.6674 34.7874 22.6817 36.2778 25.53 38.05V38.05Z" fill="white"/>
<path d="M25.03 38.92C22.1669 37.2525 19.1934 35.7824 16.13 34.52L16.8 32.65C20.0207 33.8551 23.1128 35.3793 26.03 37.2L25.03 38.92Z" fill="#212529"/>
<g style="mix-blend-mode:multiply">
<g style="mix-blend-mode:multiply">
<path d="M44.24 59.13C44.0892 58.9263 43.8814 58.772 43.6429 58.6866C43.4043 58.6011 43.1458 58.5884 42.9 58.65V58.65C40.49 59.26 32.58 56.51 22.62 50.18C14.31 44.89 7.67 39.01 6.47 35.87L6.26001 35.33L4.00001 35L3.66001 35.55C1.73182 38.6022 0.525144 42.0539 0.131786 45.6427C-0.261572 49.2314 0.168752 52.8626 1.39001 56.26C2.61442 59.6881 4.60044 62.7939 7.19861 65.3436C9.79678 67.8932 12.9394 69.8204 16.39 70.98C18.6458 71.7372 21.0106 72.119 23.39 72.11C27.2137 72.0914 30.9803 71.1805 34.39 69.45C38.4754 67.4959 41.9172 64.4149 44.31 60.57C44.4471 60.3516 44.5138 60.0965 44.5013 59.839C44.4888 59.5815 44.3976 59.334 44.24 59.13V59.13Z" fill="#F8F1F1"/>
</g>
</g>
<path d="M46.11 57.01C46.043 57.1139 45.9584 57.2053 45.86 57.28C43.75 59.06 34.28 55.5 24.08 49.03C13.88 42.56 6.63999 35.5 7.35999 32.83C7.38129 32.7078 7.42908 32.5918 7.49999 32.49C7.59575 32.3324 7.72994 32.2016 7.88999 32.11C9.13999 31.32 12.28 31.91 16.41 33.57C16.4432 33.5656 16.4768 33.5656 16.51 33.57C19.6059 34.8508 22.6127 36.3375 25.51 38.02C26.27 38.46 27.06 38.92 27.84 39.42C28.41 39.73 28.95 40.08 29.51 40.42C31.22 41.5 32.85 42.61 34.37 43.71C36.11 44.96 37.61 46.11 38.8 47.12C43.59 51.12 46.5 54.62 46.27 56.44C46.2639 56.6402 46.2089 56.8359 46.11 57.01Z" fill="white"/>
<path d="M44.14 58.74C39.65 58.74 30.92 54.54 23.55 49.87C14.55 44.17 5.39001 36.34 6.39001 32.57C6.44416 32.3495 6.53547 32.1398 6.66001 31.95C6.84318 31.6672 7.08969 31.431 7.38001 31.26C8.88001 30.26 12.01 30.75 16.65 32.6H16.77L17.07 32.75C20.1687 34.0132 23.1759 35.4901 26.07 37.17C26.85 37.63 27.65 38.09 28.45 38.6C28.98 38.9 29.53 39.25 30.11 39.6C31.78 40.66 33.43 41.78 35.02 42.94C36.81 44.22 38.33 45.38 39.51 46.39C43.27 49.51 47.68 53.83 47.33 56.59C47.2904 56.9192 47.1813 57.2362 47.01 57.52V57.52C46.8671 57.742 46.6839 57.9353 46.47 58.09C45.7949 58.5759 44.9692 58.8063 44.14 58.74V58.74ZM45.22 56.52L46.11 57.01L45.27 56.47C45.2745 56.4402 45.2745 56.4098 45.27 56.38C45.38 55.52 44 52.8 38.16 47.93C37 46.93 35.53 45.83 33.78 44.57C32.21 43.44 30.59 42.34 28.97 41.3C28.42 40.96 27.89 40.62 27.34 40.3C26.53 39.79 25.75 39.3 25 38.89C22.1386 37.238 19.1723 35.7749 16.12 34.51C11.47 32.66 9.07 32.51 8.4 32.94C7.85 34.74 13.4 41.07 24.6 48.18C35.8 55.29 43.9 57.62 45.22 56.52Z" fill="#212529"/>
<path d="M41.56 50.54C40.95 51.54 34.46 48.45 27.05 43.74C19.64 39.03 14.12 34.46 14.77 33.5C14.93 33.25 15.54 33.28 16.46 33.57C16.4932 33.5656 16.5268 33.5656 16.56 33.57C19.6994 34.753 22.714 36.2436 25.56 38.02C26.32 38.46 27.11 38.92 27.89 39.42C28.35 39.69 28.81 39.98 29.27 40.27C31.12 41.45 32.87 42.62 34.42 43.73C36.16 44.98 37.66 46.13 38.85 47.14C40.77 48.85 41.84 50.1 41.56 50.54Z" fill="white"/>
<path d="M41.11 51.71C40.23 51.71 38.82 51.28 36.43 50.17C33.0142 48.5074 29.7015 46.6407 26.51 44.58C20.01 40.45 12.51 35.09 13.88 32.97C14.54 31.97 16.11 32.44 16.7 32.62H16.8C20.0153 33.8261 23.1036 35.3468 26.02 37.16C26.78 37.61 27.58 38.07 28.38 38.58L29.75 39.43C31.75 40.67 33.45 41.85 34.95 42.93C36.74 44.21 38.26 45.37 39.44 46.38C42.23 48.76 43.03 50.03 42.39 51.04C42.262 51.2615 42.0738 51.442 41.8472 51.5606C41.6206 51.6792 41.3649 51.731 41.11 51.71V51.71ZM16.5 34.64C19.9161 37.7498 23.6269 40.5196 27.58 42.91C31.4168 45.4799 35.5003 47.6607 39.77 49.42C39.4 49.05 38.89 48.56 38.15 47.93C37 46.93 35.53 45.83 33.78 44.57C32.31 43.51 30.6 42.36 28.68 41.14C28.23 40.85 27.77 40.57 27.32 40.3C26.53 39.8 25.75 39.3 25 38.9C22.2982 37.2314 19.4537 35.8058 16.5 34.64V34.64Z" fill="#212529"/>
<g style="mix-blend-mode:multiply">
<g style="mix-blend-mode:multiply">
<path d="M62.77 58.89C63.4879 58.89 64.1898 58.6771 64.7867 58.2782C65.3837 57.8794 65.8489 57.3124 66.1237 56.6492C66.3984 55.9859 66.4703 55.256 66.3302 54.5518C66.1902 53.8477 65.8445 53.2009 65.3368 52.6932C64.8291 52.1855 64.1823 51.8398 63.4782 51.6998C62.774 51.5597 62.0441 51.6316 61.3808 51.9063C60.7175 52.1811 60.1506 52.6463 59.7518 53.2433C59.3529 53.8402 59.14 54.5421 59.14 55.26C59.1426 56.2219 59.5259 57.1437 60.2061 57.8239C60.8863 58.5041 61.8081 58.8874 62.77 58.89Z" fill="#F8F1F1"/>
</g>
<g style="mix-blend-mode:multiply">
<path d="M54.77 57.26C54.0496 57.258 53.3449 57.4698 52.745 57.8686C52.1451 58.2673 51.677 58.8351 51.4 59.5001C51.1229 60.165 51.0494 60.8972 51.1887 61.604C51.328 62.3107 51.6739 62.9602 52.1826 63.4703C52.6913 63.9804 53.3398 64.328 54.0462 64.4693C54.7525 64.6106 55.4849 64.5391 56.1506 64.2639C56.8163 63.9886 57.3854 63.5221 57.7858 62.9233C58.1863 62.3245 58.4 61.6203 58.4 60.9C58.4 59.9363 58.0179 59.012 57.3374 58.3296C56.6569 57.6473 55.7336 57.2626 54.77 57.26V57.26Z" fill="#F8F1F1"/>
</g>
<g style="mix-blend-mode:multiply">
<path d="M62.77 60.79C62.292 60.7913 61.8189 60.8868 61.3778 61.0709C60.9366 61.255 60.5361 61.5243 60.199 61.8632C59.862 62.2021 59.5949 62.6042 59.4132 63.0463C59.2315 63.4884 59.1387 63.962 59.14 64.44C59.1384 64.9956 59.2659 65.5441 59.5123 66.0421C59.7587 66.5401 60.1173 66.9742 60.56 67.31L61.12 67.74L61.7 67.36C63.2058 66.3857 64.592 65.2378 65.83 63.94L66.32 63.44L66.01 62.81C65.71 62.2063 65.2482 61.6978 64.6761 61.3411C64.104 60.9844 63.4441 60.7936 62.77 60.79Z" fill="#F8F1F1"/>
</g>
</g>
</g>
<defs>
<clipPath id="clip0_17_2">
<rect width="84.94" height="73.28" fill="white"/>
</clipPath>
</defs>
</svg>
